<svg width="29" height="22" viewBox="0 0 29 22" fill="none" xmlns="http://www.w3.org/2000/svg">
<path d="M6.18157 13.5142C2.84448 14.395 0.743412 16.5282 0.0620649 19.5244C-0.136193 20.3817 0.171031 20.6319 0.552579 20.7503C3.17548 21.5646 8.03009 21.8538 9.93526 21.8538C11.8404 21.8538 16.695 21.5646 19.3179 20.7503C19.6995 20.6319 20.0067 20.3817 19.8084 19.5244C19.1271 16.5284 17.0257 14.3951 13.6889 13.5142L10.2395 16.4266C10.0638 16.5749 9.80794 16.5749 9.63227 16.4266L6.18157 13.5142Z" fill="#21488C"/>
<path fill-rule="evenodd" clip-rule="evenodd" d="M9.93495 0.85376C7.03273 0.85376 4.69629 3.23392 4.69629 6.19039V6.55119C4.69629 9.50763 7.03273 11.8878 9.93495 11.8878C12.8372 11.8878 15.1736 9.50763 15.1736 6.55119V6.19039C15.1736 3.23392 12.8372 0.85376 9.93495 0.85376Z" fill="#21488C"/>
<path fill-rule="evenodd" clip-rule="evenodd" d="M23.0522 4.66302C22.3904 4.66296 21.7352 4.79429 21.1238 5.0495C20.5124 5.30472 19.9569 5.67882 19.4889 6.15045C19.021 6.62208 18.6497 7.18201 18.3965 7.79825C18.1432 8.4145 18.0128 9.075 18.0128 9.74203C18.0132 9.86615 18.0181 9.99022 18.0275 10.114L16.541 11.3777V12.1569H18.6243C19.0559 12.9618 19.6951 13.6342 20.4745 14.1032C21.2539 14.5721 22.1445 14.8201 23.0522 14.821C24.3885 14.821 25.6701 14.2858 26.615 13.3334C27.5599 12.3809 28.0908 11.089 28.0909 9.74203C28.0908 8.39501 27.5599 7.10319 26.615 6.1507C25.6701 5.19822 24.3885 4.66309 23.0522 4.66302ZM23.0522 6.79536C23.5216 6.79536 23.902 7.17883 23.902 7.65196C23.902 8.12509 23.5216 8.50856 23.0522 8.50856C22.5828 8.50856 22.2024 8.12509 22.2024 7.65196C22.2024 7.17883 22.5828 6.79536 23.0522 6.79536ZM21.8229 9.06788H23.2849C23.5447 9.06788 23.7538 9.27872 23.7538 9.54056V11.5193H24.2808V12.6887H21.8229V11.5193H22.3498V9.96675L21.8229 9.73006V9.06788Z" fill="#21488C"/>
</svg>
