<svg width="20" height="20" viewBox="0 0 20 20" fill="none" xmlns="http://www.w3.org/2000/svg">
<path d="M10 3.05176e-05C4.47639 3.05176e-05 0 4.47642 0 10C0 15.5236 4.47639 20 10 20C15.5236 20 20 15.5236 20 10C20 4.47642 15.5236 3.05176e-05 10 3.05176e-05ZM11.4989 14.846C7.16629 12.7106 6.03692 8.87067 5.87265 7.47436C5.70836 6.07813 8.13145 4.84603 8.13145 4.84603L9.651 7.43326C9.651 7.43326 8.00825 8.31614 8.23412 8.78853C9.44559 11.3348 11.0063 12.2793 11.0063 12.2793C11.5196 12.464 12.649 11.2115 12.649 11.2115L14.8256 13.2648C14.8459 13.2648 13.0184 15.5852 11.4988 14.846L11.4989 14.846Z" fill="#21488C"/>
</svg>
