<svg width="19" height="19" viewBox="0 0 19 19" fill="none" xmlns="http://www.w3.org/2000/svg">
<path d="M12.033 0.00010851C11.653 0.00010851 11.3998 0.25351 11.3998 0.633503C11.3998 1.0135 11.653 1.2669 12.033 1.2669C14.8197 1.2669 17.0997 3.54686 17.0997 6.3334C17.0997 6.7134 17.3529 6.9668 17.7329 6.9668C18.1128 6.9668 18.3663 6.7134 18.3663 6.3334C18.3663 2.78687 15.5797 0 12.0329 0L12.033 0.00010851Z" fill="white"/>
<path d="M14.5663 6.33347C14.1863 6.33347 13.9329 6.08007 13.9329 5.70007C13.9329 4.8135 13.5529 4.4335 12.6664 4.4335C12.2864 4.4335 12.033 4.1801 12.033 3.80011C12.033 3.42012 12.2864 3.16693 12.6664 3.16693C14.3129 3.16693 15.1997 4.05351 15.1997 5.70007C15.1997 6.08007 14.9463 6.33347 14.5663 6.33347Z" fill="white"/>
<path d="M17.6063 18.9998H17.4797C8.23283 18.1132 0.88647 10.767 0 1.64714C0 1.26715 0.126592 0.887156 0.379993 0.507163C0.633183 0.12717 1.01317 0.000366211 1.51997 0.000366211H5.0665C5.82649 0.000366211 6.33308 0.507163 6.58648 1.14035L7.72646 4.56029C7.97986 5.19368 7.72646 5.82707 7.34646 6.20707L6.83988 6.71365C6.33308 7.22024 6.33308 7.85363 6.71307 8.36022C7.85305 10.007 8.86644 11.0202 10.6398 12.287C11.1464 12.667 11.9064 12.5401 12.2864 12.1602L12.793 11.6536C13.173 11.2736 13.8064 11.0202 14.4397 11.2736L17.8597 12.4136C18.4929 12.667 18.9997 13.3001 18.9997 13.9335V17.4801C18.9997 17.9869 18.8729 18.3669 18.4929 18.62C18.2397 18.8734 17.8597 19 17.6063 19L17.6063 18.9998Z" fill="white"/>
</svg>
