<svg width="21" height="22" viewBox="0 0 21 22" fill="none" xmlns="http://www.w3.org/2000/svg">
<path d="M21 17.4389C21 17.7074 20.9503 18.0578 20.8509 18.4904C20.7514 18.9229 20.647 19.2635 20.5377 19.5121C20.329 20.0093 19.7224 20.5363 18.7181 21.0931C17.7835 21.6002 16.8588 21.8538 15.944 21.8538C15.6755 21.8538 15.4144 21.8363 15.161 21.8016C14.9074 21.7667 14.6216 21.7046 14.3033 21.6151C13.9852 21.5256 13.7491 21.4536 13.5949 21.3989C13.4408 21.3443 13.1648 21.2423 12.7672 21.0932C12.3695 20.9441 12.1258 20.8546 12.0364 20.8247C11.062 20.4767 10.1918 20.064 9.42629 19.5868C8.15362 18.8013 6.83865 17.7299 5.4813 16.3726C4.12399 15.0152 3.05258 13.7001 2.267 12.4276C1.78973 11.6619 1.37712 10.792 1.02905 9.81755C0.999167 9.72805 0.909665 9.48445 0.760543 9.08676C0.611421 8.68906 0.50947 8.41307 0.454832 8.25898C0.400195 8.10488 0.328124 7.86876 0.238623 7.55057C0.149122 7.23239 0.0870111 6.94649 0.0521474 6.69291C0.0174308 6.43935 0 6.1783 0 5.9098C0 4.99499 0.253563 4.07025 0.760686 3.13567C1.31748 2.13139 1.84451 1.52494 2.34168 1.31607C2.59012 1.20679 2.93069 1.10235 3.36325 1.00288C3.79581 0.903421 4.14621 0.85376 4.41471 0.85376C4.55387 0.85376 4.65832 0.868701 4.7279 0.898437C4.9069 0.958054 5.17043 1.33599 5.51832 2.03195C5.62774 2.22091 5.77686 2.48926 5.96584 2.83733C6.15481 3.18538 6.32883 3.50104 6.48792 3.78435C6.647 4.0678 6.8011 4.33365 6.95022 4.58224C6.9801 4.62194 7.06711 4.7463 7.21125 4.95504C7.35539 5.16378 7.46232 5.34028 7.5319 5.48458C7.60148 5.62872 7.63635 5.77051 7.63635 5.90968C7.63635 6.1086 7.4947 6.3572 7.21125 6.65544C6.9278 6.95368 6.61961 7.22716 6.2865 7.47575C5.9534 7.72433 5.64518 7.98784 5.36175 8.26617C5.07831 8.54449 4.93665 8.77328 4.93665 8.9523C4.93665 9.04181 4.96156 9.15372 5.01122 9.2879C5.06087 9.42208 5.10321 9.52403 5.13792 9.59361C5.17279 9.66319 5.24237 9.78257 5.34666 9.95162C5.45111 10.1207 5.50824 10.2151 5.5182 10.2351C6.27389 11.5972 7.1389 12.7656 8.1133 13.74C9.0877 14.7144 10.2561 15.5795 11.6182 16.3351C11.6382 16.3451 11.7325 16.4022 11.9017 16.5066C12.0707 16.6111 12.19 16.6806 12.2597 16.7154C12.3293 16.7502 12.4312 16.7924 12.5654 16.8421C12.6996 16.8919 12.8115 16.9166 12.901 16.9166C13.08 16.9166 13.3086 16.775 13.5871 16.4915C13.8656 16.2081 14.1291 15.8999 14.3775 15.5668C14.6261 15.2337 14.8996 14.9255 15.1979 14.642C15.4961 14.3586 15.7447 14.2169 15.9436 14.2169C16.0828 14.2169 16.2246 14.2518 16.3687 14.3214C16.5129 14.391 16.6894 14.4979 16.8983 14.642C17.107 14.7862 17.2314 14.8732 17.2711 14.9031C17.5196 15.0522 17.7857 15.2063 18.0689 15.3654C18.3524 15.5245 18.6681 15.6985 19.016 15.8874C19.364 16.0764 19.6324 16.2255 19.8213 16.335C20.5174 16.683 20.8952 16.9466 20.9549 17.1254C20.9847 17.195 20.9995 17.2994 20.9995 17.4386L21 17.4389Z" fill="#21488C"/>
</svg>
