<svg width="14" height="18" viewBox="0 0 14 18" fill="none" xmlns="http://www.w3.org/2000/svg">
<path d="M1 16C1 17.1 1.9 18 3 18H11C12.1 18 13 17.1 13 16V6.00003C13 4.90003 12.1 4.00003 11 4.00003H3C1.9 4.00003 1 4.90003 1 6.00003V16ZM4 6.00003H10C10.55 6.00003 11 6.45003 11 7.00003V15C11 15.55 10.55 16 10 16H4C3.45 16 3 15.55 3 15V7.00003C3 6.45003 3.45 6.00003 4 6.00003ZM10.5 1.00003L9.79 0.29003C9.61 0.11003 9.35 3.05176e-05 9.09 3.05176e-05H4.91C4.65 3.05176e-05 4.39 0.11003 4.21 0.29003L3.5 1.00003H1C0.45 1.00003 0 1.45003 0 2.00003C0 2.55003 0.45 3.00003 1 3.00003H13C13.55 3.00003 14 2.55003 14 2.00003C14 1.45003 13.55 1.00003 13 1.00003H10.5Z" fill="#21488C"/>
</svg>
