<svg width="48" height="48" viewBox="0 0 48 48" fill="none" xmlns="http://www.w3.org/2000/svg">
<rect width="48" height="48" rx="10" fill="#21488C"/>
<path d="M14.0358 17.8436H17.1198C17.5339 18.8563 18.5237 19.5927 19.6974 19.5927C20.8711 19.5927 21.8608 18.8793 22.275 17.8436H33.8285C34.4039 17.8436 34.8642 17.3834 34.8642 16.808C34.8642 16.2326 34.4039 15.7724 33.8285 15.7724L22.275 15.7722C21.8608 14.7136 20.8711 14 19.6974 14C18.5237 14 17.5339 14.7134 17.1198 15.7491L14.0356 15.7493C13.4603 15.7493 13 16.2095 13 16.7849C13 17.3603 13.4603 17.8437 14.0356 17.8437L14.0358 17.8436Z" fill="white"/>
<path d="M33.8286 22.9759H30.7447C30.3305 21.9632 29.3407 21.2268 28.167 21.2268C26.9933 21.2268 26.0036 21.9402 25.5894 22.9759H14.0359C13.4605 22.9759 13.0002 23.4362 13.0002 24.0115C13.0002 24.5869 13.4605 25.0472 14.0359 25.0472H25.5894C26.0036 26.0599 26.9933 26.7963 28.167 26.7963C29.3407 26.7963 30.3305 26.0828 30.7447 25.0472H33.8288C34.4042 25.0472 34.8644 24.5869 34.8644 24.0115C34.8644 23.4362 34.4042 22.9759 33.8288 22.9759H33.8286Z" fill="white"/>
<path d="M33.8287 30.1793H22.2752C21.861 29.1666 20.8712 28.4302 19.6975 28.4302C18.5238 28.4302 17.5341 29.1437 17.1199 30.1793H14.0358C13.4604 30.1793 13.0001 30.6396 13.0001 31.215C13.0001 31.7903 13.4604 32.2506 14.0358 32.2506H17.1197C17.5339 33.2633 18.5236 33.9997 19.6974 33.9997C20.8711 33.9997 21.8608 33.2863 22.275 32.2506L33.8285 32.2508C34.4039 32.2508 34.8641 31.7905 34.8641 31.2151C34.8641 30.6627 34.4039 30.1793 33.8285 30.1793L33.8287 30.1793Z" fill="white"/>
</svg>
