<svg width="22" height="22" viewBox="0 0 22 22" fill="none" xmlns="http://www.w3.org/2000/svg">
<path d="M10.8257 7.8501C9.99036 7.8501 9.18907 8.18203 8.59834 8.77266C8.00773 9.36342 7.67578 10.1647 7.67578 11C7.67578 11.8354 8.00771 12.6367 8.59834 13.2274C9.18911 13.818 9.99036 14.15 10.8257 14.15C11.6611 14.15 12.4624 13.8181 13.0531 13.2274C13.6437 12.6367 13.9757 11.8354 13.9757 11C13.9745 10.1649 13.6421 9.36459 13.0517 8.77412C12.4612 8.18365 11.6608 7.8513 10.8257 7.8501ZM10.8257 12.9834C10.2997 12.9834 9.79525 12.7744 9.42333 12.4024C9.05141 12.0305 8.84239 11.526 8.84239 11C8.84239 10.474 9.05142 9.96956 9.42333 9.59764C9.79525 9.22572 10.2997 9.0167 10.8257 9.0167C11.3517 9.0167 11.8562 9.22573 12.2281 9.59764C12.6 9.96956 12.8091 10.474 12.8091 11C12.8083 11.5259 12.5993 12.03 12.2274 12.4017C11.8556 12.7737 11.3516 12.9827 10.8257 12.9834L10.8257 12.9834Z" fill="#21488C"/>
<path d="M20.7424 10.4167H17.8C17.6619 8.7679 16.9443 7.2215 15.7743 6.0514C14.6043 4.88146 13.0579 4.16383 11.409 4.02569V1.0833C11.409 0.875001 11.2978 0.682393 11.1173 0.57822C10.9369 0.473927 10.7145 0.473927 10.534 0.57822C10.3536 0.682367 10.2424 0.874994 10.2424 1.0833V4.02569C8.59358 4.16382 7.04718 4.88142 5.87709 6.0514C4.70714 7.22135 3.98952 8.76778 3.85137 10.4167H0.908983C0.700685 10.4167 0.508077 10.5279 0.403904 10.7083C0.29961 10.8888 0.29961 11.1112 0.403904 11.2917C0.508051 11.4721 0.700677 11.5833 0.908983 11.5833H3.85137C3.9895 13.2321 4.70711 14.7785 5.87709 15.9486C7.04703 17.1185 8.59347 17.8362 10.2424 17.9743V20.9167C10.2424 21.125 10.3536 21.3176 10.534 21.4218C10.7145 21.5261 10.9369 21.5261 11.1173 21.4218C11.2978 21.3176 11.409 21.125 11.409 20.9167V17.9743C13.0578 17.8362 14.6042 17.1186 15.7743 15.9486C16.9442 14.7787 17.6618 13.2322 17.8 11.5833H20.7424C20.9507 11.5833 21.1433 11.4721 21.2475 11.2917C21.3518 11.1112 21.3518 10.8888 21.2475 10.7083C21.1433 10.5279 20.9507 10.4167 20.7424 10.4167ZM11.4092 16.8028V15.8999C11.4092 15.6915 11.298 15.4989 11.1175 15.3947C10.9371 15.2906 10.7147 15.2906 10.5342 15.3947C10.3538 15.4989 10.2426 15.6915 10.2426 15.8999V16.8028C8.90404 16.6681 7.65336 16.0748 6.70211 15.1237C5.75101 14.1725 5.15774 12.9218 5.023 11.5833H5.92591C6.13436 11.5833 6.32697 11.4721 6.43114 11.2916C6.53529 11.1112 6.53529 10.8888 6.43114 10.7083C6.32699 10.5279 6.13437 10.4167 5.92591 10.4167H5.023C5.15777 9.07814 5.75101 7.82746 6.70211 6.87622C7.65336 5.92512 8.90404 5.33184 10.2426 5.19711V6.10002C10.2426 6.30846 10.3538 6.50107 10.5342 6.60525C10.7147 6.70939 10.937 6.70939 11.1175 6.60525C11.298 6.5011 11.4092 6.30847 11.4092 6.10002V5.19711C12.7477 5.33187 13.9984 5.92512 14.9496 6.87622C15.9007 7.82746 16.494 9.07814 16.6287 10.4167H15.7258C15.5174 10.4167 15.3248 10.5279 15.2206 10.7083C15.1165 10.8888 15.1165 11.1111 15.2206 11.2916C15.3248 11.4721 15.5174 11.5833 15.7258 11.5833H16.6287C16.494 12.9218 15.9007 14.1725 14.9496 15.1237C13.9984 16.0748 12.7477 16.6681 11.4092 16.8028Z" fill="#21488C"/>
</svg>
