<svg width="31" height="20" viewBox="0 0 31 20" fill="none" xmlns="http://www.w3.org/2000/svg">
<path d="M28.9248 2.90621H21.5551V1.96171C21.5532 1.43949 21.3438 0.939536 20.9732 0.571521C20.6026 0.2037 20.1011 -0.00192381 19.5789 1.36883e-05H11.6639C11.1417 -0.00193245 10.6402 0.203711 10.2695 0.571521C9.89891 0.939558 9.68956 1.43952 9.68762 1.96171V2.90621H2.07545C1.5435 2.8887 1.02627 3.08266 0.637272 3.44595C0.248261 3.80901 0.0190429 4.31179 0 4.84371V18.4062C0.0095148 18.6724 0.124338 18.9239 0.319168 19.1056C0.513997 19.2872 0.772837 19.3841 1.03903 19.375H29.961C30.2272 19.3841 30.486 19.2872 30.6808 19.1056C30.8757 18.9239 30.9905 18.6724 31 18.4062V4.84371C30.981 4.31177 30.7518 3.80903 30.3627 3.44595C29.9737 3.08266 29.4565 2.88872 28.9245 2.90621H28.9248ZM5.81262 5.60704C5.80073 5.19856 6.12119 4.85733 6.52944 4.84371H8.00205C8.41031 4.85734 8.73077 5.19857 8.71887 5.60704V6.98665C8.73077 7.39512 8.4103 7.73635 8.00205 7.74997H6.52944C6.12118 7.73635 5.80072 7.39512 5.81262 6.98665V5.60704ZM5.81262 9.48204C5.80073 9.07357 6.12119 8.73234 6.52944 8.71872H8.00205C8.41031 8.73234 8.73077 9.07357 8.71887 9.48204V10.8617C8.73077 11.2701 8.4103 11.6114 8.00205 11.625H6.52944C6.12118 11.6114 5.80072 11.2701 5.81262 10.8617V9.48204ZM5.81262 13.357C5.80073 12.9486 6.12119 12.6073 6.52944 12.5937H8.00205C8.41031 12.6073 8.73077 12.9486 8.71887 13.357V14.7367C8.73077 15.1451 8.4103 15.4864 8.00205 15.5H6.52944C6.12118 15.4864 5.80072 15.1451 5.81262 14.7367V13.357ZM1.93761 5.60704C1.92572 5.19856 2.24619 4.85733 2.65443 4.84371H4.12705C4.53531 4.85734 4.85577 5.19857 4.84387 5.60704V6.98665C4.85576 7.39512 4.5353 7.73635 4.12705 7.74997H2.65443C2.24617 7.73635 1.92571 7.39512 1.93761 6.98665V5.60704ZM1.93761 9.48204C1.92572 9.07357 2.24619 8.73234 2.65443 8.71872H4.12705C4.53531 8.73234 4.85577 9.07357 4.84387 9.48204V10.8617C4.85576 11.2701 4.5353 11.6114 4.12705 11.625H2.65443C2.24617 11.6114 1.92571 11.2701 1.93761 10.8617V9.48204ZM1.93761 13.357C1.92572 12.9486 2.24619 12.6073 2.65443 12.5937H4.12705C4.53531 12.6073 4.85577 12.9486 4.84387 13.357V14.7367C4.85576 15.1451 4.5353 15.4864 4.12705 15.5H2.65443C2.24617 15.4864 1.92571 15.1451 1.93761 14.7367V13.357ZM9.68762 18.4039V18.4062H1.03806C1.01341 18.4075 0.988972 18.4004 0.968862 18.3861V17.4375H9.68762V18.4039ZM10.6564 2.90605V1.96171C10.6588 1.69638 10.7662 1.44295 10.9552 1.25679C11.1442 1.07039 11.3994 0.966811 11.6647 0.968544H19.578C19.8433 0.966814 20.0985 1.07039 20.2874 1.25679C20.4764 1.44297 20.5839 1.6964 20.5863 1.96171L20.5865 4.84355H10.6565L10.6564 2.90605ZM18.1639 18.4061H13.078V13.5623H18.1639V18.4061ZM20.5662 18.4061H19.1327V13.5623C19.1327 13.3054 19.0306 13.0589 18.849 12.8773C18.6673 12.6956 18.4208 12.5936 18.1639 12.5936H13.078C12.8211 12.5936 12.5746 12.6956 12.3929 12.8773C12.2113 13.0589 12.1092 13.3054 12.1092 13.5623V18.4061H10.6758C10.6693 18.4059 10.6628 18.4046 10.6565 18.402L10.6561 18.4024V5.8125H20.5861L20.5873 18.398C20.5822 18.4042 20.5739 18.4075 20.5659 18.4064L20.5662 18.4061ZM26.1561 5.60637C26.1442 5.19811 26.4647 4.85689 26.8729 4.84349H28.3456C28.7538 4.8569 29.0743 5.19812 29.0624 5.60637V6.98687C29.0743 7.39513 28.7538 7.73635 28.3456 7.74975H26.8729C26.4647 7.73634 26.1442 7.39512 26.1561 6.98687V5.60637ZM26.1561 9.48138C26.1442 9.07312 26.4647 8.7319 26.8729 8.7185H28.3456C28.7538 8.73191 29.0743 9.07313 29.0624 9.48138V10.8619C29.0743 11.2701 28.7538 11.6114 28.3456 11.6248H26.8729C26.4647 11.6113 26.1442 11.2701 26.1561 10.8619V9.48138ZM26.1561 13.3564C26.1442 12.9481 26.4647 12.6069 26.8729 12.5935H28.3456C28.7538 12.6069 29.0743 12.9481 29.0624 13.3564V14.7369C29.0743 15.1451 28.7538 15.4864 28.3456 15.4998H26.8729C26.4647 15.4864 26.1442 15.1451 26.1561 14.7369V13.3564ZM22.2811 5.60637C22.2692 5.19811 22.5897 4.85689 22.9979 4.84349H24.4706C24.8788 4.8569 25.1993 5.19812 25.1874 5.60637V6.98687C25.1993 7.39513 24.8788 7.73635 24.4706 7.74975H22.9979C22.5897 7.73634 22.2692 7.39512 22.2811 6.98687V5.60637ZM22.2811 9.48138C22.2692 9.07312 22.5897 8.7319 22.9979 8.7185H24.4706C24.8788 8.73191 25.1993 9.07313 25.1874 9.48138V10.8619C25.1993 11.2701 24.8788 11.6114 24.4706 11.6248H22.9979C22.5897 11.6113 22.2692 11.2701 22.2811 10.8619V9.48138ZM22.2811 13.3564C22.2692 12.9481 22.5897 12.6069 22.9979 12.5935H24.4706C24.8788 12.6069 25.1993 12.9481 25.1874 13.3564V14.7369C25.1993 15.1451 24.8788 15.4864 24.4706 15.4998H22.9979C22.5897 15.4864 22.2692 15.1451 22.2811 14.7369V13.3564ZM30.0311 18.3859C30.011 18.4001 29.9866 18.4073 29.9619 18.406H21.5543L21.5545 18.4036V17.4372H30.0308L30.0311 18.3859Z" fill="white"/>
</svg>
