<svg width="17" height="20" viewBox="0 0 17 20" fill="none" xmlns="http://www.w3.org/2000/svg">
<path d="M16.875 8.13551C16.875 3.62689 13.0078 0 8.4375 0C3.76152 0 0 3.62708 0 8.13551V8.47449C0 8.50839 0.140625 9.69482 0.28125 10.2033C1.26562 14.1695 4.60527 17.1863 8.4375 20C12.2695 17.1865 15.6094 14.1695 16.5938 10.2033C16.7344 9.69482 16.875 8.54229 16.875 8.47449V8.13551ZM8.4375 11.5253C6.50391 11.5253 4.92188 9.9999 4.92188 8.13551C4.92188 6.27113 6.50391 4.74572 8.4375 4.74572C10.3711 4.74572 11.9531 6.27113 11.9531 8.13551C11.9531 9.9999 10.3711 11.5253 8.4375 11.5253Z" fill="white"/>
</svg>
