<svg width="24" height="25" viewBox="0 0 24 25" fill="none" xmlns="http://www.w3.org/2000/svg">
<path d="M23.9332 2.0572V20.6062C23.9332 20.7461 23.8564 20.8942 23.7303 20.9628C23.4313 21.1218 23.1296 21.2809 22.8306 21.4372C21.5306 22.1229 20.2278 22.8113 18.9278 23.4998C18.1049 23.9331 17.2849 24.3692 16.4621 24.8026C16.1905 24.9479 15.8422 24.7696 15.8422 24.446C15.8422 24.435 15.8422 24.4241 15.8422 24.4131C15.8367 24.1635 15.8422 23.9112 15.8422 23.6588V21.429H8.02545C7.57839 21.429 7.20264 21.0505 7.20264 20.6062V14.6847C7.20264 14.2239 7.58113 13.8811 8.02545 13.8619C8.46977 13.8427 8.84827 14.2541 8.84827 14.6847V19.7834H15.8422V5.10985C15.8422 4.96997 15.919 4.82186 16.0452 4.75329C16.3441 4.59422 16.6458 4.43514 16.9448 4.2788C18.0638 3.68638 19.1828 3.09669 20.3046 2.50427H8.84827V7.08186C8.84827 7.54264 8.46977 7.88548 8.02545 7.90468C7.58113 7.92387 7.20264 7.51247 7.20264 7.08186V1.68145C7.20264 1.23439 7.58113 0.858636 8.02545 0.858636C8.03642 0.858636 8.04465 0.858636 8.05562 0.858636C8.75227 0.847665 9.45167 0.858636 10.1511 0.858636H23.5492C23.6288 0.861378 23.7001 0.891548 23.7632 0.938175C23.7659 0.940917 23.7714 0.94366 23.7741 0.946403C23.8153 0.976572 23.8509 1.01497 23.8784 1.06434C23.8948 1.09177 23.9085 1.12468 23.9168 1.15485C23.9168 1.15759 23.9195 1.16033 23.9195 1.16308C23.9305 1.19873 23.936 1.23439 23.936 1.27004C23.936 1.28101 23.936 1.29198 23.936 1.30296C23.9387 1.55254 23.9332 1.80487 23.9332 2.0572Z" fill="#21488C"/>
<path d="M10.4422 9.93431V11.942C10.4422 12.1641 10.253 12.3534 10.0308 12.3534H5.77959V14.7313C5.77959 15.0138 5.41755 15.2826 5.15974 15.0879C4.95678 14.9315 4.75107 14.7752 4.54811 14.6216C3.65673 13.9414 2.76535 13.2585 1.87396 12.5783C1.31445 12.1504 0.754933 11.7226 0.195419 11.2947C-0.0651396 11.0945 -0.0651396 10.7846 0.195419 10.5843C0.39838 10.428 0.604084 10.2717 0.807045 10.1181C1.69843 9.43788 2.58981 8.75495 3.48119 8.07475C4.04071 7.64689 4.60022 7.21902 5.15974 6.79116C5.41755 6.59368 5.77959 6.86247 5.77959 7.14771V9.52565H10.0308C10.253 9.51194 10.4422 9.71764 10.4422 9.93431Z" fill="#21488C"/>
</svg>
