<svg width="20" height="20" viewBox="0 0 20 20" fill="none" xmlns="http://www.w3.org/2000/svg">
<path d="M2.92312 0C1.31208 0 0 1.23057 0 2.91657C0 3.30399 0.108266 3.93003 0.234403 4.27065L2.91675 9.99978L5.5991 4.27065C5.72436 3.93017 5.8335 3.3037 5.8335 2.91657C5.8335 1.23057 4.53433 0 2.92329 0H2.92312ZM2.91672 1.66669C3.60716 1.66669 4.16679 2.22632 4.16679 2.91676C4.16679 3.60719 3.60716 4.16682 2.91672 4.16682C2.22644 4.16682 1.66666 3.60719 1.66666 2.91676C1.66666 2.22632 2.22629 1.66669 2.91672 1.66669ZM16.6603 8.74997C14.8192 8.74997 13.3335 10.1865 13.3335 12.0834C13.3335 12.519 13.4571 13.1717 13.6004 13.5547L16.6668 20L19.7333 13.5547C19.8773 13.1715 20.0002 12.5192 20.0002 12.0834C20.0002 10.1866 18.5015 8.74997 16.6605 8.74997H16.6603ZM3.76977 9.1666L3.37915 9.99985H8.75039C9.7964 9.99985 10.6253 10.8289 10.6253 11.8748C10.6253 12.9208 9.79625 13.7497 8.75039 13.7497H5.62541C3.90132 13.7497 2.50043 15.1506 2.50043 16.8747C2.50043 18.5987 3.90132 19.9996 5.62541 19.9996H16.2049L15.8078 19.1664H5.62556C4.34878 19.1664 3.33383 18.1516 3.33383 16.8747C3.33383 15.5979 4.3486 14.5829 5.62556 14.5829H8.75054C10.2437 14.5829 11.4589 13.3678 11.4589 11.8746C11.4589 10.3814 10.2437 9.16623 8.75054 9.16623L3.76977 9.1666ZM16.667 10.6249C17.4723 10.6249 18.1253 11.2778 18.1253 12.0832C18.1253 12.8885 17.4723 13.5415 16.667 13.5415C15.8616 13.5415 15.2087 12.8885 15.2087 12.0832C15.2087 11.2778 15.8616 10.6249 16.667 10.6249Z" fill="#21488C"/>
</svg>
