<svg width="22" height="21" viewBox="0 0 22 21" fill="none" xmlns="http://www.w3.org/2000/svg">
<path fill-rule="evenodd" clip-rule="evenodd" d="M9.50237e-06 4.78773e-05L21.4608 3.97361V21H7.53621V16.6408C7.53621 16.5706 7.51039 16.4976 7.4608 16.448C7.41121 16.3984 7.33824 16.3726 7.26807 16.3726H3.12684C3.05667 16.3726 2.98369 16.3984 2.93411 16.448C2.88452 16.4976 2.8587 16.5706 2.8587 16.6408V21H0V0L9.50237e-06 4.78773e-05ZM17.8393 4.64426H14.5699C14.4997 4.64426 14.4268 4.67008 14.3772 4.71967C14.3276 4.76926 14.3018 4.84223 14.3018 4.9124V8.30757C14.3018 8.37774 14.3276 8.4423 14.3772 8.49208C14.4268 8.54167 14.4997 8.57591 14.5699 8.57591H17.8393C17.9095 8.57591 17.9741 8.54167 18.0236 8.49208C18.0734 8.44249 18.1075 8.37794 18.1075 8.30757V4.9124C18.1075 4.84223 18.0732 4.76925 18.0236 4.71967C17.9741 4.67008 17.9095 4.64426 17.8393 4.64426ZM12.3654 4.64426H9.09595C9.02579 4.64426 8.96123 4.67008 8.91145 4.71967C8.86186 4.76926 8.82762 4.84223 8.82762 4.9124V8.30757C8.82762 8.37774 8.86186 8.4423 8.91145 8.49208C8.96104 8.54167 9.02559 8.57591 9.09595 8.57591H12.3654C12.4355 8.57591 12.5001 8.54167 12.5499 8.49208C12.5995 8.44249 12.6337 8.37794 12.6337 8.30757V4.9124C12.6337 4.84223 12.5995 4.76925 12.5499 4.71967C12.5003 4.67008 12.4357 4.64426 12.3654 4.64426ZM6.89143 4.64426H3.622C3.55184 4.64426 3.48728 4.67008 3.4375 4.71967C3.38791 4.76926 3.35367 4.84223 3.35367 4.9124V8.30757C3.35367 8.37774 3.38791 8.4423 3.4375 8.49208C3.48728 8.54167 3.55164 8.57591 3.622 8.57591H6.89143C6.9616 8.57591 7.03458 8.54167 7.08416 8.49208C7.13375 8.44249 7.15957 8.37794 7.15957 8.30757V4.9124C7.15957 4.84223 7.13375 4.76925 7.08416 4.71967C7.03457 4.67008 6.9616 4.64426 6.89143 4.64426ZM17.8398 11.2669H14.5704C14.5002 11.2669 14.4272 11.301 14.3776 11.3508C14.3281 11.4004 14.3022 11.4649 14.3022 11.5353V14.9304C14.3022 15.0006 14.3281 15.0736 14.3776 15.1232C14.4272 15.1728 14.5002 15.1986 14.5704 15.1986H17.8398C17.91 15.1986 17.9745 15.1728 18.0241 15.1232C18.0739 15.0736 18.108 15.0006 18.108 14.9304V11.5353C18.108 11.4651 18.0737 11.4005 18.0241 11.3508C17.9745 11.301 17.91 11.2669 17.8398 11.2669ZM12.3659 11.2669H9.09643C9.02626 11.2669 8.9617 11.301 8.91193 11.3508C8.86234 11.4004 8.8281 11.4649 8.8281 11.5353V14.9304C8.8281 15.0006 8.86234 15.0736 8.91193 15.1232C8.96152 15.1728 9.02607 15.1986 9.09643 15.1986H12.3659C12.436 15.1986 12.5006 15.1728 12.5504 15.1232C12.6 15.0736 12.6342 15.0006 12.6342 14.9304V11.5353C12.6342 11.4651 12.6 11.4005 12.5504 11.3508C12.5008 11.301 12.4362 11.2669 12.3659 11.2669ZM6.89191 11.2669H3.62248C3.55231 11.2669 3.48775 11.301 3.43798 11.3508C3.38839 11.4004 3.35415 11.4649 3.35415 11.5353V14.9304C3.35415 15.0006 3.38839 15.0736 3.43798 15.1232C3.48775 15.1728 3.55212 15.1986 3.62248 15.1986H6.89191C6.96208 15.1986 7.03506 15.1728 7.08464 15.1232C7.13423 15.0736 7.16005 15.0006 7.16005 14.9304V11.5353C7.16005 11.4651 7.13423 11.4005 7.08464 11.3508C7.03505 11.301 6.96208 11.2669 6.89191 11.2669Z" fill="#21488C"/>
<path fill-rule="evenodd" clip-rule="evenodd" d="M12.0947 5.17786H9.36646V8.03746H12.0947V5.17786Z" fill="#21488C"/>
<path fill-rule="evenodd" clip-rule="evenodd" d="M17.5669 5.17786H14.8386V8.03746H17.5669V5.17786Z" fill="#21488C"/>
<path fill-rule="evenodd" clip-rule="evenodd" d="M6.62181 5.17786H3.89355V8.03746H6.62181V5.17786Z" fill="#21488C"/>
<path fill-rule="evenodd" clip-rule="evenodd" d="M12.0947 11.8067H9.36646V14.6663H12.0947V11.8067Z" fill="#21488C"/>
<path fill-rule="evenodd" clip-rule="evenodd" d="M17.5669 11.8067H14.8386V14.6663H17.5669V11.8067Z" fill="#21488C"/>
<path fill-rule="evenodd" clip-rule="evenodd" d="M6.62181 11.8067H3.89355V14.6663H6.62181V11.8067Z" fill="#21488C"/>
</svg>
