<svg width="24" height="24" viewBox="0 0 24 24" fill="none" xmlns="http://www.w3.org/2000/svg">
<path d="M19.2837 17.361C19.2837 17.7545 18.9645 18.0736 18.571 18.0736C18.1775 18.0736 17.8584 17.7545 17.8584 17.361C17.8584 16.9675 18.1775 16.6484 18.571 16.6484C18.9645 16.6484 19.2837 16.9675 19.2837 17.361Z" fill="#21488C"/>
<path d="M21.3171 15.5573H15.8233C15.7217 15.5573 15.6387 15.6403 15.6387 15.7419V19.1264C15.6387 19.2281 15.7217 19.3111 15.8233 19.3111H18.319V18.5507C17.7691 18.4345 17.3548 17.9453 17.3548 17.361C17.3548 16.6906 17.9004 16.145 18.5707 16.145C19.2411 16.145 19.7866 16.6906 19.7866 17.361C19.7866 17.9453 19.3724 18.4345 18.8223 18.5507V19.3111H21.3171C21.4192 19.3111 21.5028 19.2281 21.5028 19.1264V15.7419C21.5028 15.6403 21.4192 15.5573 21.3171 15.5573H21.3171Z" fill="#21488C"/>
<path d="M20.3507 13.5904C20.3507 12.608 19.552 11.8088 18.5707 11.8088C17.5887 11.8088 16.7896 12.608 16.7896 13.5904V15.054H20.3507V13.5904Z" fill="#21488C"/>
<path d="M23.1345 0.853868H5.2583V21.2164H18.1067C18.2455 21.2164 18.3584 21.3291 18.3584 21.4681C18.3584 22.1082 18.6055 22.7082 19.0549 23.157C19.5083 23.6055 20.1088 23.853 20.7438 23.853C22.0619 23.853 23.1344 22.783 23.1344 21.4679V0.85376L23.1345 0.853868ZM7.64572 3.50717H21.0046C21.1434 3.50717 21.2563 3.61986 21.2563 3.75888C21.2563 3.89772 21.1436 4.01059 21.0046 4.01059H7.64572C7.50688 4.01059 7.39401 3.8979 7.39401 3.75888C7.39401 3.62004 7.50635 3.50717 7.64572 3.50717ZM7.64572 5.99251H18.0011C18.1399 5.99251 18.2528 6.1052 18.2528 6.24422C18.2528 6.38306 18.1401 6.49593 18.0011 6.49593L7.64572 6.49575C7.50688 6.49575 7.39401 6.38306 7.39401 6.24404C7.39401 6.1052 7.50635 5.99251 7.64572 5.99251V5.99251ZM7.64572 8.47766H20.7453C20.8841 8.47766 20.997 8.59035 20.997 8.72937C20.997 8.86821 20.8843 8.98108 20.7453 8.98108L7.64572 8.98091C7.50688 8.98091 7.39401 8.86822 7.39401 8.7292C7.39401 8.59035 7.50635 8.47766 7.64572 8.47766ZM7.64572 10.9633H15.8788C16.0176 10.9633 16.1305 11.076 16.1305 11.215C16.1305 11.3539 16.0178 11.4667 15.8788 11.4667L7.64572 11.4666C7.50688 11.4666 7.39401 11.3539 7.39401 11.2148C7.39401 11.076 7.50635 10.9633 7.64572 10.9633ZM12.9787 13.9522H7.64572C7.50688 13.9522 7.39401 13.8395 7.39401 13.7005C7.39401 13.5617 7.5067 13.4488 7.64572 13.4488H12.9791C13.118 13.4488 13.2308 13.5615 13.2308 13.7005C13.2306 13.8395 13.118 13.9522 12.9789 13.9522H12.9787ZM22.0057 19.1266C22.0057 19.506 21.6968 19.8145 21.3168 19.8145H15.823C15.4435 19.8145 15.1351 19.5059 15.1351 19.1266V15.742C15.1351 15.3625 15.4436 15.0541 15.823 15.0541H16.286V13.5906C16.286 12.3308 17.3108 11.3057 18.5704 11.3057C19.8296 11.3057 20.8536 12.3307 20.8536 13.5906V15.0541H21.3167C21.6967 15.0541 22.0057 15.3627 22.0057 15.742L22.0057 19.1266Z" fill="#21488C"/>
<path d="M18.7002 23.5145C18.2151 23.0293 17.9377 22.3983 17.8798 21.7202H0C0.127787 22.9159 1.13341 23.8536 2.36491 23.8536L19.1164 23.8538C18.97 23.7536 18.8296 23.6423 18.7002 23.5145L18.7002 23.5145Z" fill="#21488C"/>
</svg>
