<svg width="24" height="25" viewBox="0 0 24 25" fill="none" xmlns="http://www.w3.org/2000/svg">
<path d="M19.1999 14.7538C17.2399 14.7538 15.5519 15.9377 14.808 17.6257L9.11196 14.4577C9.42392 13.8177 9.60001 13.1057 9.60001 12.3538C9.60001 11.1938 9.18393 10.1218 8.48805 9.28987L13.3118 6.27377C13.9999 7.50572 15.2959 8.35377 16.7999 8.35377C19.0079 8.35377 20.7999 6.56181 20.7999 4.35377C20.7999 2.14572 19.0079 0.35376 16.7999 0.35376C14.5918 0.35376 12.7999 2.14572 12.7999 4.35377C12.7999 4.46573 12.8238 4.57769 12.8318 4.68984L7.20806 8.20984L5.60001 9.15376L6.76646 7.98731C6.16486 7.71302 5.50396 7.55373 4.80001 7.55373C2.15196 7.55373 0 9.70569 0 12.3537C0 15.0018 2.15196 17.1537 4.80001 17.1537C6.11196 17.1537 7.30392 16.6257 8.1761 15.7618L14.4161 19.2338C14.4081 19.3377 14.4 19.4418 14.4 19.5538C14.4 22.2018 16.552 24.3538 19.2 24.3538C21.8481 24.3538 24.0001 22.2018 24.0001 19.5538C24.0001 16.9057 21.8481 14.7537 19.2 14.7537L19.1999 14.7538Z" fill="#21488C"/>
</svg>
