<svg width="20" height="25" viewBox="0 0 20 25" fill="none" xmlns="http://www.w3.org/2000/svg">
<path d="M15.6613 4.79894L11.8172 0.954842C11.7666 0.904213 11.7162 0.878986 11.6655 0.85376V4.95067H15.7624C15.7372 4.90004 15.6866 4.84939 15.6613 4.79894Z" fill="#21488C"/>
<path d="M16.1096 15.2943V6.49339H11.1781C10.7734 6.49339 10.47 6.16457 10.47 5.78528V0.85376H0.708115C0.303438 0.85376 0 1.18258 0 1.56187V20.8327C0 21.2374 0.328822 21.5408 0.708115 21.5408H9.53426C10.2171 23.4628 12.0632 24.8538 14.2129 24.8538C16.9442 24.8538 19.195 22.6282 19.195 19.8717C19.1948 17.8234 17.9049 16.0529 16.1094 15.2942L16.1096 15.2943ZM3.9705 5.05187H7.48579C7.89047 5.05187 8.1939 5.38069 8.1939 5.75999C8.1939 6.16466 7.86508 6.4681 7.48579 6.4681H3.9705C3.56582 6.4681 3.26239 6.13928 3.26239 5.75999C3.26239 5.38053 3.59121 5.05187 3.9705 5.05187ZM3.9705 8.89579H12.1138C12.5185 8.89579 12.8219 9.22461 12.8219 9.6039C12.8219 10.0086 12.4931 10.312 12.1138 10.312L3.9705 10.3122C3.56582 10.3122 3.26239 9.98337 3.26239 9.60408C3.26239 9.22463 3.59121 8.89578 3.9705 8.89578V8.89579ZM3.9705 12.7399H12.1138C12.5185 12.7399 12.8219 13.0687 12.8219 13.448C12.8219 13.8273 12.4931 14.1561 12.1138 14.1561H3.9705C3.56582 14.1561 3.26239 13.8273 3.26239 13.448C3.26239 13.0687 3.59121 12.7399 3.9705 12.7399ZM8.37098 18.0002H3.9705C3.56582 18.0002 3.26239 17.6713 3.26239 17.2921C3.26239 16.9128 3.59121 16.5839 3.9705 16.5839H8.37098C8.77566 16.5839 9.07909 16.9128 9.07909 17.2921C9.07909 17.6713 8.77549 18.0002 8.37098 18.0002ZM14.2129 23.4375C12.2656 23.4375 10.6724 21.8442 10.6724 19.897C10.6724 17.9496 12.2657 16.3565 14.2129 16.3565C16.1603 16.3565 17.7534 17.9498 17.7534 19.897C17.7534 21.8444 16.1603 23.4375 14.2129 23.4375Z" fill="#21488C"/>
<path d="M14.9341 18.5061L13.3914 20.0488L12.8857 19.543C12.6075 19.2648 12.1524 19.2648 11.8742 19.543C11.596 19.8212 11.596 20.2763 11.8742 20.5545L12.9111 21.5914C13.0628 21.7431 13.2399 21.7938 13.4169 21.7938C13.594 21.7938 13.7961 21.7179 13.9226 21.5914L15.9965 19.5176C16.2747 19.2394 16.2747 18.7843 15.9965 18.5061C15.6675 18.2279 15.2123 18.2279 14.9341 18.5061H14.9341Z" fill="#21488C"/>
</svg>
