<svg width="19" height="20" viewBox="0 0 19 20" fill="none" xmlns="http://www.w3.org/2000/svg">
<circle cx="9.38066" cy="9.38066" r="9.38066" fill="#21488C"/>
<path d="M0.448766 19.8822L1.65818 14.6127L5.49611 17.6555L0.448766 19.8822Z" fill="#21488C"/>
<path d="M14.5943 11.4407L11.8721 10.8966C11.6664 10.8555 11.3796 10.9427 11.2312 11.0907L10.7392 11.5827C10.543 11.7793 10.2015 11.8084 9.97736 11.6449C9.52745 11.3149 8.9106 10.87 8.40102 10.3606C7.89144 9.85053 7.44665 9.2336 7.11665 8.78377C6.9532 8.5601 6.98276 8.2181 7.17889 8.02196L7.6709 7.52995C7.81935 7.3815 7.90611 7.09459 7.86502 6.88905L7.32085 4.16682C7.26924 3.90956 7.01489 3.70146 6.7526 3.70146L5.55186 3.70123C5.00465 3.70123 4.31707 4.54231 4.02825 4.93198C3.94999 5.03777 3.86323 5.22932 3.84118 5.35828C3.70326 6.17182 3.20029 8.75921 6.60105 12.1604C10.002 15.5614 12.5899 15.0578 13.4032 14.9203C13.5321 14.8982 13.7237 14.8109 13.829 14.7332C14.2182 14.4444 15.0598 13.7567 15.0598 13.2096V12.0094C15.0598 11.7467 14.8511 11.4919 14.5943 11.4407Z" fill="white"/>
</svg>
